<svg width="84" height="60" viewBox="0 0 84 60" fill="none" xmlns="http://www.w3.org/2000/svg">
<path d="M40.3818 30.3536H26.333L40.3818 44.71V30.3536Z" fill="#3CB371"/>
<path d="M43.1504 30.3536H57.1992L43.1504 44.71V30.3536Z" fill="#3CB371"/>
<path d="M12.6943 13.4335H23.154V27.3798C15.1965 20.9809 12.8652 15.4161 12.6943 13.4335Z" fill="#3CB371"/>
<path d="M70.8379 13.3309H60.3782V27.2772C68.3358 20.8783 70.667 15.3135 70.8379 13.3309Z" fill="#3CB371"/>
<path d="M40.4844 10.8698H25.7178V0.228857C29.6266 -0.267034 37.1908 7.11623 40.4844 10.8698Z" fill="#3CB371"/>
<path d="M42.7402 10.8698H57.5068V0.228857C53.598 -0.267034 46.0338 7.11623 42.7402 10.8698Z" fill="#3CB371"/>
<rect width="14.7666" height="14.7666" transform="translate(25.7178 13.1259)" fill="#3CB371"/>
<rect width="14.7666" height="14.7666" transform="translate(42.9453 13.1259)" fill="#3CB371"/>
<path d="M23.2566 0.102539V10.7673H12.7969C12.8789 3.79419 19.8042 0.751996 23.2566 0.102539Z" fill="#3CB371"/>
<path d="M59.9681 0V10.6648H70.4277C70.3457 3.69165 63.4204 0.649457 59.9681 0Z" fill="#3CB371"/>
<path d="M3.45703 60C2.33148 60 1.47393 59.732 0.884356 59.196C0.294785 58.6601 0 57.9059 0 56.9335C0 56.5889 0.0459406 56.2061 0.137822 55.785C0.23736 55.3638 0.371353 54.9504 0.539802 54.5446L1.52752 54.8432C1.38205 55.1648 1.26337 55.494 1.17148 55.8309C1.0796 56.1601 1.03366 56.4511 1.03366 56.7038C1.03366 57.2321 1.20977 57.6417 1.56198 57.9327C1.92185 58.2313 2.41188 58.3806 3.03208 58.3806H3.88198C4.5864 58.3806 5.0994 58.2275 5.42099 57.9212C5.75023 57.6149 5.91485 57.1364 5.91485 56.4856C5.91485 56.3477 5.89953 56.1525 5.86891 55.8998C5.83828 55.6471 5.77702 55.3102 5.68514 54.8891L5.57029 54.3149L6.67287 54.0966L6.78772 54.6709C6.826 54.87 6.86046 55.0576 6.89108 55.2337C6.92171 55.4098 6.94468 55.5782 6.95999 55.739H6.98296L7.59168 54.7054C7.87498 54.2306 8.15828 53.8287 8.44158 53.4994C8.72488 53.1702 9.01966 52.9022 9.32593 52.6955C9.6322 52.4887 9.94996 52.3394 10.2792 52.2475C10.6161 52.1557 10.9721 52.1097 11.3473 52.1097C12.2049 52.1097 12.8519 52.3432 13.2883 52.8103C13.7324 53.2774 13.9544 53.9282 13.9544 54.7628C13.9544 55.628 13.7171 56.2597 13.2424 56.6578C12.7676 57.0483 12.0326 57.2436 11.0372 57.2436H6.95999C6.8528 58.1854 6.51207 58.8783 5.93782 59.3224C5.37122 59.7741 4.54429 60 3.45703 60ZM11.0372 55.739C11.711 55.739 12.1896 55.6701 12.4729 55.5323C12.7562 55.3868 12.8978 55.1188 12.8978 54.7283C12.8978 54.3531 12.7868 54.0737 12.5647 53.8899C12.3504 53.7062 12.002 53.6143 11.5196 53.6143H11.175C10.8381 53.6143 10.5434 53.6334 10.2907 53.6717C10.038 53.7023 9.80448 53.7674 9.59009 53.8669C9.38336 53.9588 9.19194 54.0928 9.01583 54.2689C8.83973 54.4374 8.66362 54.6556 8.48752 54.9236L7.99366 55.6701L8.02811 55.739H11.0372Z" fill="#444645"/>
<path d="M14.7364 58.4955H15.437C16.2103 58.4955 16.8191 58.3844 17.2631 58.1624C17.7149 57.9403 18.0212 57.6341 18.182 57.2436H16.8152C16.195 57.2436 15.7127 57.0675 15.3681 56.7153C15.0235 56.363 14.8513 55.873 14.8513 55.2452C14.8513 54.8623 14.9087 54.5063 15.0235 54.177C15.1384 53.8478 15.2954 53.5607 15.4944 53.3157C15.7012 53.0706 15.9424 52.8792 16.218 52.7414C16.5013 52.6036 16.8037 52.5347 17.1253 52.5347C17.8068 52.5347 18.3466 52.818 18.7447 53.3846C19.1429 53.9435 19.3534 54.7283 19.3764 55.739H19.9392V56.9335L19.6291 57.2436H19.2386C19.0395 58.1241 18.6299 58.8017 18.0097 59.2764C17.3895 59.7588 16.5587 60 15.5174 60H14.7364V58.4955ZM15.8964 55.0499C15.8964 55.2949 15.9806 55.471 16.1491 55.5782C16.3252 55.6854 16.574 55.739 16.8956 55.739H18.3198V55.6127C18.3198 55.1303 18.1973 54.7475 17.9523 54.4642C17.7072 54.1809 17.3895 54.0392 16.999 54.0392C16.6774 54.0392 16.4132 54.1349 16.2065 54.3263C15.9998 54.5178 15.8964 54.759 15.8964 55.0499Z" fill="#444645"/>
<path d="M22.3669 54.8776C22.3669 55.2528 22.4779 55.5017 22.6999 55.6242L23.2282 54.7054C23.5039 54.223 23.7834 53.8172 24.0667 53.4879C24.35 53.1587 24.6447 52.8945 24.951 52.6955C25.2573 52.4887 25.5789 52.3394 25.9158 52.2475C26.2527 52.1557 26.6087 52.1097 26.9839 52.1097C27.8414 52.1097 28.4884 52.3432 28.9249 52.8103C29.369 53.2774 29.591 53.9282 29.591 54.7628C29.591 55.628 29.3536 56.2597 28.8789 56.6578C28.4119 57.0483 27.6768 57.2436 26.6738 57.2436H23.3546C22.765 57.2436 22.3133 57.1287 21.9993 56.899C21.6854 56.6693 21.4748 56.3095 21.3677 55.8194H21.3102C21.2107 56.3248 21.0308 56.6885 20.7704 56.9105C20.5177 57.1326 20.1387 57.2436 19.6334 57.2436V56.0491L19.9435 55.739H20.2995C20.9274 55.739 21.2413 55.4519 21.2413 54.8776V54.1081H22.3669V54.8776ZM26.6738 55.739C27.3552 55.739 27.8376 55.6701 28.1209 55.5323C28.4042 55.3868 28.5459 55.1188 28.5459 54.7283C28.5459 54.3531 28.4348 54.0737 28.2128 53.8899C27.9907 53.7062 27.6385 53.6143 27.1562 53.6143H26.8116C26.4747 53.6143 26.1799 53.6334 25.9272 53.6717C25.6746 53.7023 25.441 53.7674 25.2267 53.8669C25.0199 53.9588 24.8285 54.0928 24.6524 54.2689C24.4763 54.4374 24.3002 54.6556 24.1241 54.9236L23.6302 55.6701L23.6647 55.739H26.6738Z" fill="#444645"/>
<path d="M29.3375 58.4955H29.7854C30.5205 58.4955 31.045 58.327 31.3589 57.9901C31.6728 57.6609 31.826 57.1785 31.8183 56.543C31.8183 56.3516 31.8068 56.1525 31.7839 55.9458C31.7609 55.7314 31.7303 55.5131 31.692 55.2911L31.4508 53.8325L32.5649 53.6487L32.7371 54.6594C32.806 55.0423 32.852 55.4021 32.875 55.739H33.9431V56.9335L33.633 57.2436H32.875C32.8214 57.657 32.718 58.0322 32.5649 58.3691C32.4117 58.706 32.2088 58.9931 31.9561 59.2305C31.7035 59.4755 31.3972 59.6631 31.0373 59.7933C30.6775 59.9311 30.264 60 29.7969 60H29.3375V58.4955Z" fill="#444645"/>
<path d="M33.6309 56.0491L33.941 55.739C34.163 55.739 34.3468 55.7352 34.4923 55.7275C34.6378 55.7199 34.7756 55.7007 34.9058 55.6701C34.8981 55.6165 34.8904 55.5629 34.8828 55.5093C34.8828 55.4557 34.8828 55.3983 34.8828 55.337C34.8828 54.4565 35.4226 53.6985 36.5022 53.063L37.1913 52.6495H38.5236L39.4079 55.0155C39.5151 55.3064 39.63 55.5017 39.7525 55.6012C39.8826 55.6931 40.0741 55.739 40.3267 55.739H40.6368V56.9335L40.3267 57.2436C39.8673 57.2436 39.5036 57.1747 39.2357 57.0368C38.9753 56.8914 38.7495 56.6578 38.558 56.3362L38.4891 56.3477V57.2436H37.0535C36.5175 57.2436 36.0811 57.144 35.7442 56.945C35.4149 56.7459 35.1814 56.4817 35.0436 56.1525H34.9517C34.7526 56.8799 34.3124 57.2436 33.6309 57.2436V56.0491ZM35.8475 55.1877C35.8475 55.3868 35.9241 55.5285 36.0772 55.6127C36.238 55.6969 36.4524 55.739 36.7204 55.739H38.2824L37.6048 53.9473L36.8008 54.3034C36.4945 54.4335 36.2572 54.5714 36.0887 54.7168C35.9279 54.8623 35.8475 55.0193 35.8475 55.1877Z" fill="#444645"/>
<path d="M40.3268 56.0491L40.6368 55.739H41.0963C41.4026 55.739 41.6132 55.6739 41.728 55.5438C41.8505 55.4136 41.9118 55.2107 41.9118 54.9351V48.7446H43.1292V54.9351C43.1292 55.7237 42.9722 56.3056 42.6583 56.6808C42.352 57.0483 41.8314 57.2359 41.0963 57.2436H40.3267L40.3268 56.0491Z" fill="#444645"/>
<path d="M44.6134 48.7446H45.8423V57.2436H44.6134V48.7446Z" fill="#444645"/>
<path d="M53.1661 59.0927C52.0406 59.0927 51.183 58.8247 50.5935 58.2887C50.0039 57.7604 49.7091 57.0062 49.7091 56.0261C49.7091 55.6816 49.7551 55.2988 49.8469 54.8776C49.9465 54.4565 50.0805 54.0469 50.2489 53.6487L51.2366 53.9359C51.0912 54.2574 50.9725 54.5867 50.8806 54.9236C50.7887 55.2528 50.7428 55.5476 50.7428 55.8079C50.7428 56.3362 50.9189 56.7497 51.2711 57.0483C51.631 57.3393 52.121 57.4848 52.7412 57.4848H53.5911C54.2955 57.4848 54.8085 57.3316 55.1301 57.0254C55.4593 56.7114 55.624 56.2291 55.624 55.5782C55.624 55.3868 55.6048 55.1533 55.5665 54.8776C55.5282 54.602 55.4785 54.3072 55.4172 53.9933L55.199 52.9596L56.3016 52.7414L56.5083 53.7636C56.5696 54.1005 56.6193 54.4259 56.6576 54.7398C56.6959 55.0537 56.715 55.3332 56.715 55.5782C56.715 56.788 56.4279 57.6762 55.8537 58.2428C55.2871 58.8094 54.3912 59.0927 53.1661 59.0927ZM53.1317 52.8792C52.9479 52.8792 52.7948 52.8256 52.6723 52.7184C52.5574 52.6036 52.5 52.4236 52.5 52.1786C52.5 51.926 52.5574 51.746 52.6723 51.6388C52.7948 51.524 52.9479 51.4665 53.1317 51.4665H53.3269C53.5107 51.4665 53.66 51.524 53.7749 51.6388C53.8974 51.746 53.9586 51.926 53.9586 52.1786C53.9586 52.4236 53.8974 52.6036 53.7749 52.7184C53.66 52.8256 53.5107 52.8792 53.3269 52.8792H53.1317Z" fill="#444645"/>
<path d="M60.0646 57.2436C59.3066 57.2436 58.7476 57.0751 58.3878 56.7382C58.0355 56.4013 57.8594 55.8424 57.8594 55.0614V48.7446H59.0883V54.9006C59.0883 55.2298 59.1572 55.4519 59.2951 55.5667C59.4406 55.6816 59.6856 55.739 60.0301 55.739H60.3862V56.9335L60.0761 57.2436H60.0646Z" fill="#444645"/>
<path d="M60.0781 56.0491L60.3882 55.739H60.7443C61.3721 55.739 61.6861 55.4519 61.6861 54.8776V53.1893H62.8116V54.8776C62.8116 55.4519 63.0987 55.739 63.673 55.739H64.1094V56.9335L63.7993 57.2436C63.2097 57.2436 62.758 57.1287 62.4441 56.899C62.1301 56.6693 61.9196 56.3095 61.8124 55.8194H61.755C61.6554 56.3248 61.4755 56.6885 61.2152 56.9105C60.9625 57.1326 60.5835 57.2436 60.0781 57.2436V56.0491ZM63.0068 59.6555C62.8231 59.6555 62.6699 59.598 62.5474 59.4832C62.4326 59.376 62.3752 59.1999 62.3752 58.9549C62.3752 58.7022 62.4326 58.5184 62.5474 58.4036C62.6699 58.2964 62.8231 58.2428 63.0068 58.2428H63.2021C63.3858 58.2428 63.5352 58.2964 63.65 58.4036C63.7725 58.5184 63.8338 58.7022 63.8338 58.9549C63.8338 59.1999 63.7725 59.376 63.65 59.4832C63.5352 59.598 63.3858 59.6555 63.2021 59.6555H63.0068ZM61.2956 59.6555C61.1118 59.6555 60.9587 59.598 60.8361 59.4832C60.7213 59.376 60.6639 59.1999 60.6639 58.9549C60.6639 58.7022 60.7213 58.5184 60.8361 58.4036C60.9587 58.2964 61.1118 58.2428 61.2956 58.2428H61.4908C61.6746 58.2428 61.8239 58.2964 61.9387 58.4036C62.0612 58.5184 62.1225 58.7022 62.1225 58.9549C62.1225 59.1999 62.0612 59.376 61.9387 59.4832C61.8239 59.598 61.6746 59.6555 61.4908 59.6555H61.2956Z" fill="#444645"/>
<path d="M63.8018 56.0491L64.1119 55.739H64.468C65.0958 55.739 65.4097 55.4519 65.4097 54.8776V53.1893H66.5353V54.8776C66.5353 55.4519 66.8224 55.739 67.3967 55.739H67.8331V56.9335L67.523 57.2436C66.9334 57.2436 66.4817 57.1287 66.1678 56.899C65.8538 56.6693 65.6433 56.3095 65.5361 55.8194H65.4787C65.3791 56.3248 65.1992 56.6885 64.9389 56.9105C64.6862 57.1326 64.3072 57.2436 63.8018 57.2436V56.0491ZM65.8691 52.1327C65.6854 52.1327 65.5323 52.0791 65.4097 51.9719C65.2949 51.857 65.2375 51.6771 65.2375 51.4321C65.2375 51.1794 65.2949 50.9995 65.4097 50.8923C65.5323 50.7774 65.6854 50.72 65.8691 50.72H66.0644C66.2482 50.72 66.3975 50.7774 66.5123 50.8923C66.6348 50.9995 66.6961 51.1794 66.6961 51.4321C66.6961 51.6771 66.6348 51.857 66.5123 51.9719C66.3975 52.0791 66.2482 52.1327 66.0644 52.1327H65.8691Z" fill="#444645"/>
<path d="M68.1048 51.6684L69.4486 51.0367V50.9907C69.2954 50.8912 69.1768 50.7687 69.0925 50.6232C69.0083 50.4701 68.9662 50.3016 68.9662 50.1179C68.9662 49.7963 69.0696 49.5283 69.2763 49.3139C69.483 49.0995 69.751 48.9923 70.0802 48.9923C70.3942 48.9923 70.6545 49.0957 70.8612 49.3024C71.068 49.5092 71.1713 49.7733 71.1713 50.0949C71.1713 50.7534 70.7885 51.2549 70.0228 51.5994L68.4149 52.346L68.1048 51.6684ZM69.6553 50.0834C69.6553 50.2595 69.7816 50.4088 70.0343 50.5313L70.2296 50.6347C70.3138 50.5734 70.375 50.5084 70.4133 50.4395C70.4516 50.3705 70.4707 50.2825 70.4707 50.1753C70.4707 50.0528 70.4286 49.9494 70.3444 49.8652C70.2678 49.781 70.1645 49.7389 70.0343 49.7389C69.9271 49.7389 69.8352 49.7733 69.7587 49.8422C69.6898 49.9035 69.6553 49.9839 69.6553 50.0834Z" fill="#444645"/>
<path d="M67.5255 56.0491L67.8356 55.739H68.1917C68.8195 55.739 69.1334 55.4519 69.1334 54.8776V53.1893H70.259V54.8776C70.259 55.4519 70.5461 55.739 71.1204 55.739H71.5568V56.9335L71.2467 57.2436C70.6571 57.2436 70.2054 57.1287 69.8915 56.899C69.5775 56.6693 69.367 56.3095 69.2598 55.8194H69.2024C69.1028 56.3248 68.9229 56.6885 68.6625 56.9105C68.4099 57.1326 68.0309 57.2436 67.5255 57.2436V56.0491ZM69.5928 59.6555C69.4091 59.6555 69.256 59.598 69.1334 59.4832C69.0186 59.376 68.9612 59.1999 68.9612 58.9549C68.9612 58.7022 69.0186 58.5184 69.1334 58.4036C69.256 58.2964 69.4091 58.2428 69.5928 58.2428H69.7881C69.9719 58.2428 70.1212 58.2964 70.236 58.4036C70.3585 58.5184 70.4198 58.7022 70.4198 58.9549C70.4198 59.1999 70.3585 59.376 70.236 59.4832C70.1212 59.598 69.9719 59.6555 69.7881 59.6555H69.5928Z" fill="#444645"/>
<path d="M71.2492 56.0491L71.5593 55.739H72.0187C72.325 55.739 72.5356 55.6739 72.6504 55.5438C72.7729 55.4136 72.8342 55.2107 72.8342 54.9351V48.7446H74.0516V54.9351C74.0516 55.7237 73.8946 56.3056 73.5807 56.6808C73.2744 57.0483 72.7538 57.2359 72.0187 57.2436H71.2492V56.0491Z" fill="#444645"/>
<path d="M77.7409 57.2436C76.9829 57.2436 76.424 57.0751 76.0641 56.7382C75.7119 56.4013 75.5358 55.8424 75.5358 55.0614V48.7446H76.7647V54.9006C76.7647 55.2298 76.8336 55.4519 76.9714 55.5667C77.1169 55.6816 77.3619 55.739 77.7065 55.739H78.0625V56.9335L77.7524 57.2436H77.7409Z" fill="#444645"/>
<path d="M77.7545 56.0491L78.0646 55.739H79.8103C80.1013 55.739 80.3118 55.7007 80.442 55.6242C80.5722 55.5399 80.6372 55.4021 80.6372 55.2107C80.6372 55.0652 80.5913 54.9389 80.4994 54.8317C80.4152 54.7245 80.2506 54.5905 80.0056 54.4297L78.1794 53.2238V50.5133L83.5315 48.6068V49.985L78.7077 51.7077V51.7652L80.0056 52.661C80.3195 52.8677 80.5836 53.063 80.798 53.2467C81.0124 53.4229 81.1847 53.6066 81.3149 53.798C81.445 53.9818 81.5369 54.1732 81.5905 54.3723C81.6518 54.5714 81.6824 54.7896 81.6824 55.0269C81.6824 55.7696 81.5063 56.3248 81.1541 56.6923C80.8019 57.0598 80.2429 57.2436 79.4772 57.2436H77.7545V56.0491Z" fill="#444645"/>
</svg>
